HIERARCHY
ROOT hip
{
	OFFSET 0.000000 0.000000 0.000000 
	CHANNELS 6 Xposition Yposition Zposition Xrotation Zrotation Yrotation
	JOINT abdomen
	{
		OFFSET 0.000000 3.402643 0.000000 
		CHANNELS 3 Xrotation Zrotation Yrotation
		JOINT chest
		{
			OFFSET 0.000000 8.438565 -0.680529 
			CHANNELS 3 Xrotation Zrotation Yrotation
			JOINT neck
			{
				OFFSET 0.000000 10.207942 -0.272212 
				CHANNELS 3 Xrotation Zrotation Yrotation
				JOINT head
				{
					OFFSET 0.000000 3.130431 0.000000 
					CHANNELS 3 Xrotation Zrotation Yrotation
					End Site
					{
						OFFSET 0.000000 3.130435 0.000000 
					}
				}
			}
			JOINT lCollar
			{
				OFFSET 3.470700 6.669187 -0.816635 
				CHANNELS 3 Yrotation Zrotation Xrotation
				JOINT lShldr
				{
					OFFSET 3.198488 0.000000 0.000000 
					CHANNELS 3 Zrotation Yrotation Xrotation
					JOINT lForeArm
					{
						OFFSET 10.139888 0.000000 0.000000 
						CHANNELS 3 Yrotation Zrotation Xrotation
						JOINT lHand
						{
							OFFSET 8.370511 0.000000 0.000000 
							CHANNELS 3 Zrotation Yrotation Xrotation
							End Site
							{
								OFFSET 4.083176 0.000000 0.000000 
							}
						}
					}
				}
			}
			JOINT rCollar
			{
				OFFSET -3.470700 6.669187 -0.816635 
				CHANNELS 3 Yrotation Zrotation Xrotation
				JOINT rShldr
				{
					OFFSET -3.198488 0.000000 0.000000 
					CHANNELS 3 Zrotation Yrotation Xrotation
					JOINT rForeArm
					{
						OFFSET -10.139888 0.000000 0.000000 
						CHANNELS 3 Yrotation Zrotation Xrotation
						JOINT rHand
						{
							OFFSET -8.370511 0.000000 0.000000 
							CHANNELS 3 Zrotation Yrotation Xrotation
							End Site
							{
								OFFSET -4.083176 0.000000 0.000000 
							}
						}
					}
				}
			}
		}
	}
	JOINT lThigh
	{
		OFFSET 5.308129 -1.633274 1.361059 
		CHANNELS 3 Xrotation Zrotation Yrotation
		JOINT lShin
		{
			OFFSET -2.041588 -20.007561 0.000000 
			CHANNELS 3 Xrotation Zrotation Yrotation
			JOINT lFoot
			{
				OFFSET 0.000000 -19.190928 -1.224953 
				CHANNELS 3 Xrotation Yrotation Zrotation
				End Site
				{
					OFFSET 0.000000 -2.449906 4.627600 
				}
			}
		}
	}
	JOINT rThigh
	{
		OFFSET -5.308129 -1.633274 1.361059 
		CHANNELS 3 Xrotation Zrotation Yrotation
		JOINT rShin
		{
			OFFSET 2.041588 -20.007561 0.000000 
			CHANNELS 3 Xrotation Zrotation Yrotation
			JOINT rFoot
			{
				OFFSET 0.000000 -19.190928 -1.224953 
				CHANNELS 3 Xrotation Yrotation Zrotation
				End Site
				{
					OFFSET 0.000000 -2.449906 4.627600 
				}
			}
		}
	}
}
MOTION
Frames: 6
Frame Time: 0.033333
0.379347 51.426243 -0.157096 -18.115566 0.292817 1.845729 0.000000 0.000000 0.000000 28.032267 -2.258417 4.573682 42.777580 7.636597 0.325896 -25.695686 2.767218 7.792458 -14.611781 9.754242 24.996124 -89.843765 -1.528537 -1.713159 -45.250896 9.729087 71.684486 -16.795029 -6.420122 -56.308197 -6.823395 -1.237201 24.512995 63.981976 11.334070 66.666298 32.098888 -39.906559 34.998032 38.643795 -3.147752 -81.031914 26.239305 0.157065 15.596633 11.043545 17.505327 4.149346 -2.793243 -27.324478 4.971334 27.855297 1.005508 1.164263 16.069836 -15.534425 -3.252863 0.279461 -4.161447 10.755956 
0.374090 51.395077 -0.155651 -18.041409 0.507584 1.718856 0.000000 0.000000 0.000000 27.923599 -2.550660 4.515932 42.795643 7.607307 0.316213 -25.628996 2.602554 7.820799 -14.371874 9.727792 24.988972 -89.658249 -1.561520 -1.806221 -45.148502 9.505712 71.858360 -16.667744 -6.499031 -56.313232 -6.665852 -0.996043 24.543062 63.853745 11.259851 66.595886 31.835224 -39.933125 34.166473 38.526386 -3.383871 -81.035202 25.489742 0.637247 15.859771 12.443530 16.777483 3.872973 -2.547639 -27.315807 5.505913 27.215918 -0.098132 0.847607 17.185392 -14.403723 -2.876230 0.469710 -4.020982 14.034962 
0.360300 51.336792 -0.155456 -17.755930 0.654063 1.533326 0.000000 0.000000 0.000000 27.591469 -2.823400 4.477799 42.795265 7.538950 0.316205 -25.540556 2.399495 7.799995 -14.050529 9.848024 24.993717 -89.677757 -1.620783 -1.796253 -44.923508 9.374827 71.862213 -16.568741 -6.543221 -56.306427 -6.466293 -0.801028 24.584064 63.742241 11.127287 66.560394 31.624981 -39.922813 33.416882 38.317112 -3.641343 -81.019211 24.500340 1.348173 16.227531 14.083628 15.849281 3.550873 -2.291307 -27.319679 4.611259 26.319431 -1.278657 0.474081 18.345703 -13.087962 -2.406335 0.336867 -3.692759 16.339874 
0.334602 51.246948 -0.155172 -17.317757 0.732242 1.269677 0.000000 0.000000 0.000000 27.028316 -3.037628 4.469027 42.822269 7.353413 0.306494 -25.379524 2.283231 7.828855 -13.491494 10.115584 24.989222 -89.765633 -1.672524 -1.754902 -44.601868 9.183446 71.727158 -16.588421 -6.508794 -56.323383 -6.196711 -0.709886 24.597338 63.728096 10.987527 66.572670 31.403906 -39.909992 32.855038 38.048344 -3.776850 -80.987740 23.223227 2.423955 16.747177 16.008299 14.566060 3.105722 -2.262552 -27.271551 1.986049 25.161442 -2.685244 0.050696 19.630434 -11.333730 -1.869408 -0.304859 -3.172956 17.865318 
0.287586 51.103218 -0.152191 -16.659552 0.683515 0.869312 0.000000 0.000000 0.000000 26.157103 -3.154248 4.518303 42.892982 6.845630 0.266448 -25.095549 2.572124 8.045612 -12.363456 10.452929 24.990662 -89.716812 -1.680649 -1.785671 -44.252537 8.489751 71.701454 -16.956142 -6.106651 -56.389858 -5.790082 -0.939417 24.582502 64.040115 10.815759 66.787422 30.907511 -39.942482 32.523251 37.614410 -3.585439 -80.924873 21.620008 4.189756 17.545732 18.456200 12.586308 2.487284 -2.657554 -27.294210 -2.070010 23.636423 -4.579393 -0.551446 21.080437 -8.680677 -1.078952 -1.622825 -2.248829 18.734550 
0.239321 50.968136 -0.151460 -16.069899 0.478496 0.517642 0.000000 0.000000 0.000000 25.380953 -3.037095 4.595801 42.974049 6.308545 0.226468 -24.895220 3.091534 8.401130 -11.198219 10.726915 24.994038 -89.560593 -1.675175 -1.868370 -43.946388 7.648500 71.906425 -17.379158 -5.633140 -56.474823 -5.430992 -1.393898 24.553888 64.575096 10.728884 67.128052 29.995752 -39.812214 31.496790 37.076477 -3.782107 -80.892899 20.440460 5.889070 18.341518 20.259829 10.798145 1.889306 -3.316841 -27.616774 -3.286500 22.505211 -6.044370 -0.959822 22.032610 -6.365460 -0.500598 -2.919170 -1.294655 19.168978 
